<svg xmlns="http://www.w3.org/2000/svg" xmlns:xlink="http://www.w3.org/1999/xlink" width="25" height="19.999" viewBox="0 0 25 19.999"><defs><style>.a{fill:url(#a);}</style><linearGradient id="a" x1="0.5" x2="0.5" y2="1" gradientUnits="objectBoundingBox"><stop offset="0" stop-color="#f6ae54"/><stop offset="1" stop-color="#ea5d6c"/></linearGradient></defs><path class="a" d="M18.081-2.866a1.436,1.436,0,0,0,.884.366h1.66a.625.625,0,0,0,.625-.625V-4.784a1.436,1.436,0,0,0-.366-.884l-9.04-9.041-2.8,2.8ZM8.159-12.788l2.8-2.8L9.328-17.227a1.082,1.082,0,0,0-.662-.272A1.082,1.082,0,0,0,8-17.227l-1.48,1.479a1.077,1.077,0,0,0-.272.66,1.077,1.077,0,0,0,.272.66ZM23.75-11.25H17.07l4.7,4.7A2.871,2.871,0,0,1,22.5-4.784h0v2.909a.625.625,0,0,1-.625.625H4.063a.313.313,0,0,1-.312-.312v-.625A.313.313,0,0,1,4.063-2.5H16.68L14.18-5H4.063a.313.313,0,0,1-.312-.312v-.625a.313.313,0,0,1,.313-.312H12.93l-5-5H1.25A1.25,1.25,0,0,0,0-10V1.25A1.25,1.25,0,0,0,1.25,2.5h22.5A1.25,1.25,0,0,0,25,1.25V-10A1.25,1.25,0,0,0,23.75-11.25Z" transform="translate(0 17.499)"/></svg>